Coordinates
version=1
nRows=13
nColumns=40
inDegrees=yes

Units are S.I. units (second, meters, Newtons, ...)
If the header above contains a line with 'inDegrees', this indicates whether rotational values are in degrees (yes) or radians (no).

endheader
time	pelvis_tilt	pelvis_list	pelvis_rotation	pelvis_tx	pelvis_ty	pelvis_tz	hip_flexion_r	hip_adduction_r	hip_rotation_r	knee_angle_r	knee_angle_r_beta	ankle_angle_r	subtalar_angle_r	mtp_angle_r	hip_flexion_l	hip_adduction_l	hip_rotation_l	knee_angle_l	knee_angle_l_beta	ankle_angle_l	subtalar_angle_l	mtp_angle_l	lumbar_extension	lumbar_bending	lumbar_rotation	arm_flex_r	arm_add_r	arm_rot_r	elbow_flex_r	pro_sup_r	wrist_flex_r	wrist_dev_r	arm_flex_l	arm_add_l	arm_rot_l	elbow_flex_l	pro_sup_l	wrist_flex_l	wrist_dev_l
      2.20000000	    -20.66974804	      8.89446343	     14.05831164	     -2.58714733	      0.95157392	      0.28982894	     25.98659418	    -15.49787871	    -11.26246690	    109.95606978	      1.91909545	    -11.21486194	      0.00000000	      0.00000000	     37.16143291	     10.40342887	     -4.30342044	     41.87911908	      0.73092852	     14.01092485	      0.00000000	      0.00000000	    -20.96924248	    -10.20092474	    -15.73504335	     -2.12282169	    -17.45298287	      1.97874001	     52.99681130	     87.69184790	      0.00000000	      0.00000000	      9.17688342	    -21.00561160	     -2.09730343	     82.50232250	     87.67008716	      0.00000000	      0.00000000
      2.20500000	    -21.25974518	      8.48249703	     16.13846332	     -2.55972191	      0.94806205	      0.28602641	     29.09941590	    -16.63539500	    -11.75821853	    112.58927725	      1.96505359	     -9.44807768	      0.00000000	      0.00000000	     35.56578805	     11.45467847	     -1.48935776	     41.68984007	      0.72762497	     16.29948958	      0.00000000	      0.00000000	    -20.30004860	     -9.33087273	    -18.45545677	     -4.62471320	    -18.61948833	      4.39270972	     51.47141384	     87.70330590	      0.00000000	      0.00000000	     12.72630038	    -20.48707197	     -1.90326301	     84.15967065	     87.82954495	      0.00000000	      0.00000000
      2.21000000	    -21.28758379	      8.22098842	     17.02009410	     -2.53141149	      0.94534322	      0.28456615	     32.06357248	    -17.05922205	    -11.06251657	    114.81935328	      2.00397576	     -7.75892576	      0.00000000	      0.00000000	     33.28791265	     11.55467824	     -0.03703974	     41.26889127	      0.72027803	     18.41434614	      0.00000000	      0.00000000	    -20.10543397	     -8.89134847	    -19.89086245	     -7.28876378	    -19.79090258	      6.52025787	     50.46855824	     87.69401941	      0.00000000	      0.00000000	     16.83034848	    -20.19500436	     -1.05787323	     85.50244674	     87.80503301	      0.00000000	      0.00000000
      2.21500000	    -22.10357554	      7.80667061	     18.68508284	     -2.50420685	      0.94146907	      0.28150867	     35.83525666	    -18.19310210	    -10.77272492	    116.93175073	      2.04084405	     -6.09713360	      0.00000000	      0.00000000	     31.87918208	     12.14342490	      2.13825841	     40.86912544	      0.71330080	     20.32537396	      0.00000000	      0.00000000	    -19.11332762	     -8.27467841	    -22.03279863	    -10.22053110	    -20.96600395	      8.07550623	     49.97167731	     87.70839720	      0.00000000	      0.00000000	     20.76572825	    -19.81780143	     -0.50515524	     86.96278563	     87.91631762	      0.00000000	      0.00000000
      2.22000000	    -22.68377195	      7.05983327	     19.95621590	     -2.47685101	      0.93785468	      0.27953225	     39.60638871	    -18.70964678	    -10.33571797	    118.60735389	      2.07008884	     -4.52841706	      0.00000000	      0.00000000	     30.36202719	     11.96746098	      3.92637295	     40.45219843	      0.70602405	     22.00401306	      0.00000000	      0.00000000	    -18.19676456	     -7.42962840	    -23.64935003	    -13.24707817	    -22.20884191	      9.42510154	     49.93527344	     87.71548254	      0.00000000	      0.00000000	     24.97605765	    -19.52559329	      0.24556573	     88.21616728	     87.96170550	      0.00000000	      0.00000000
      2.22500000	    -23.48177369	      6.00245235	     21.31904171	     -2.45005708	      0.93398933	      0.27734686	     43.78421088	    -19.12030050	     -9.91024016	    119.91283619	      2.09287381	     -3.13057957	      0.00000000	      0.00000000	     29.24793914	     11.52980871	      5.71275976	     40.01490138	      0.69839178	     23.30120978	      0.00000000	      0.00000000	    -16.94325638	     -6.30455688	    -25.14988465	    -16.55232008	    -23.43905966	     10.05971050	     50.36095450	     87.74821054	      0.00000000	      0.00000000	     29.32425102	    -19.10721315	      1.09338907	     89.34488696	     87.98190835	      0.00000000	      0.00000000
      2.23000000	    -24.12415192	      4.96605505	     22.45478170	     -2.42283895	      0.93043371	      0.27568459	     47.83862723	    -19.45185764	     -9.37245276	    120.81787964	      2.10866979	     -1.69597298	      0.00000000	      0.00000000	     27.94066340	     10.82701473	      7.22410163	     39.37757863	      0.68726840	     24.48329316	      0.00000000	      0.00000000	    -15.80095397	     -5.24168017	    -26.44455773	    -19.96224121	    -24.58649958	     10.32761200	     51.03159290	     87.75910989	      0.00000000	      0.00000000	     33.72985660	    -18.76974975	      1.94986608	     90.42791175	     87.99637870	      0.00000000	      0.00000000
      2.23500000	    -24.82714166	      3.75648403	     23.52584014	     -2.39565954	      0.92688243	      0.27414503	     52.03298171	    -19.70318198	     -8.86494583	    121.32298806	      2.11748560	     -0.40102976	      0.00000000	      0.00000000	     26.79758106	      9.88086784	      8.73398080	     38.62974172	      0.67421618	     25.27019298	      0.00000000	      0.00000000	    -14.49539055	     -4.04721429	    -27.54774067	    -23.61164109	    -25.61194499	      9.89947738	     51.97989876	     87.78534134	      0.00000000	      0.00000000	     38.18614829	    -18.34070591	      2.79726424	     91.39209295	     88.00665398	      0.00000000	      0.00000000
      2.24000000	    -25.49152242	      2.40174414	     24.44346671	     -2.36818590	      0.92348986	      0.27286746	     56.19132242	    -19.81174296	     -8.40161175	    121.40054848	      2.11883928	      0.75721531	      0.00000000	      0.00000000	     25.68870956	      8.63325472	     10.15013973	     37.70810186	      0.65813053	     25.63182239	      0.00000000	      0.00000000	    -13.11420019	     -2.72754350	    -28.42150081	    -27.44572398	    -26.45755939	      8.90397334	     53.10533751	     87.83680207	      0.00000000	      0.00000000	     42.58791607	    -17.83537556	      3.55946373	     92.32885975	     88.00881723	      0.00000000	      0.00000000
      2.24500000	    -26.08296618	      0.99315712	     25.16838784	     -2.34035585	      0.92042858	      0.27176769	     60.22207802	    -19.79996878	     -7.94498841	    121.02759454	      2.11233001	      1.83258220	      0.00000000	      0.00000000	     24.53841041	      7.16823254	     11.46329762	     36.59771862	      0.63875069	     25.60925494	      0.00000000	      0.00000000	    -11.73995359	     -1.33139705	    -29.08271028	    -31.37051883	    -27.10804391	      7.32704995	     54.31871828	     87.86897085	      0.00000000	      0.00000000	     46.88958704	    -17.31337690	      4.21529482	     93.27886981	     87.97980903	      0.00000000	      0.00000000
      2.25000000	    -26.62387485	     -0.47238917	     25.68971808	     -2.31209572	      0.91761141	      0.27093405	     64.11818353	    -19.65571088	     -7.53437558	    120.24725231	      2.09871047	      2.75076596	      0.00000000	      0.00000000	     23.39101896	      5.48443300	     12.63021573	     35.35801384	      0.61711376	     25.15263460	      0.00000000	      0.00000000	    -10.34263763	      0.12323337	    -29.51539479	    -35.38255482	    -27.54531777	      5.34013054	     55.59576367	     87.95740800	      0.00000000	      0.00000000	     51.04567745	    -16.77632343	      4.74765766	     94.22450941	     87.95697539	      0.00000000	      0.00000000
      2.25500000	    -26.82617899	     -1.69846365	     25.83806238	     -2.28274277	      0.91591316	      0.27042793	     67.40294517	    -19.30980917	     -7.04307703	    118.99166401	      2.07679632	      3.63152237	      0.00000000	      0.00000000	     21.61589278	      3.67002983	     13.61904237	     33.55191979	      0.58559147	     24.14565851	      0.00000000	      0.00000000	     -9.35791667	      1.44778913	    -29.98241669	    -38.80838357	    -28.31057964	      4.38450438	     56.70389630	     87.83157159	      0.00000000	      0.00000000	     54.84407176	    -16.69093723	      4.97703512	     95.54186052	     87.81899531	      0.00000000	      0.00000000
      2.26000000	    -27.49721337	     -3.27463055	     25.98637919	     -2.25376298	      0.91318340	      0.26971202	     71.17045447	    -19.00015661	     -6.73447703	    117.46963650	      2.05023193	      4.45425976	      0.00000000	      0.00000000	     20.72580267	      1.76723554	     14.55962440	     32.22912987	      0.56250443	     22.84137439	      0.00000000	      0.00000000	     -7.69796201	      3.01034006	    -29.60799018	    -43.36062678	    -27.62814171	      0.22702091	     58.01368406	     88.05187600	      0.00000000	      0.00000000	     58.64691060	    -15.67800691	      5.34461531	     96.33832229	     87.87505410	      0.00000000	      0.00000000
